<?xml version="1.0" standalone="no"?>
<!DOCTYPE svg PUBLIC "-//W3C//DTD SVG 20010904//EN"
 "http://www.w3.org/TR/2001/REC-SVG-20010904/DTD/svg10.dtd">
<svg version="1.0" xmlns="http://www.w3.org/2000/svg"
 width="140.000000pt" height="140.000000pt" viewBox="0 0 140.000000 140.000000"
 preserveAspectRatio="xMidYMid meet">
<metadata>
Created by potrace 1.14, written by Peter Selinger 2001-2017
</metadata>
<g transform="translate(0.000000,140.000000) scale(0.100000,-0.100000)"
fill="#000000" stroke="none">
<path d="M1260 1044 c-24 -7 -46 -11 -48 -9 -2 2 -21 -3 -43 -10 -21 -8 -39
-12 -39 -10 0 3 -11 0 -24 -5 -13 -5 -44 -11 -67 -15 -24 -3 -51 -8 -59 -10
-8 -2 -31 -7 -50 -10 -19 -3 -36 -8 -39 -10 -2 -3 -10 0 -18 7 -7 6 -16 8 -19
5 -3 -3 -17 -1 -31 4 -14 5 -42 12 -62 15 -53 8 -115 20 -146 28 -100 27 -163
32 -190 17 -5 -3 -14 -6 -20 -7 -5 -1 -46 -9 -90 -18 -44 -10 -89 -19 -100
-22 -95 -19 -125 -29 -126 -38 -1 -6 -2 -147 -3 -314 l-1 -302 35 6 c19 3 42
7 50 8 8 1 31 6 50 10 19 4 44 9 55 11 11 2 20 4 20 5 0 1 9 3 20 5 11 1 36 6
55 10 19 4 41 8 48 8 6 0 12 3 12 7 0 8 134 5 148 -3 5 -4 24 -9 43 -12 19 -3
42 -8 51 -11 20 -6 55 -14 83 -18 11 -2 36 -7 55 -12 44 -9 134 -10 180 0 19
4 46 9 60 11 14 3 36 7 50 10 14 3 39 7 55 10 17 3 44 8 60 11 17 3 39 6 50 7
49 5 49 9 48 339 -1 171 -3 311 -5 313 -2 1 -23 -3 -48 -11z"/>
</g>
</svg>
